<?xml version="1.0" encoding="utf-8"?>
<!-- Generator: Adobe Illustrator 19.1.0, SVG Export Plug-In . SVG Version: 6.00 Build 0)  -->
<svg version="1.1" id="Layer_1" xmlns="http://www.w3.org/2000/svg" xmlns:xlink="http://www.w3.org/1999/xlink" x="0px" y="0px"
	 viewBox="0 0 512 512" style="enable-background:new 0 0 512 512;" xml:space="preserve">
<style type="text/css">
	.st0{fill:none;stroke:#010101;stroke-width:14.7493;stroke-linecap:round;stroke-miterlimit:10;}
	.st1{fill:#010101;}
	.st2{fill:none;stroke:#010101;stroke-width:14.7493;stroke-miterlimit:10;}
</style>
<g>
	<path class="st0" d="M329.1,73.6H138.6c-38,0-68.8,30.8-68.8,68.8v234.8c0,38,30.8,68.8,68.8,68.8h234.8c38,0,68.8-30.8,68.8-68.8
		V142.4c0-38-30.8-68.8-68.8-68.8"/>
	<circle class="st1" cx="351.3" cy="73.6" r="7.6"/>
	<path class="st2" d="M200.8,263.7h-46.5c-6.6,0-12-5.4-12-12v-68.6c0-6.6,5.4-12,12-12h46.5c6.6,0,12,5.4,12,12v68.6
		C212.8,258.3,207.4,263.7,200.8,263.7z"/>
	<path class="st2" d="M323.7,263.7h-46.5c-6.6,0-12-5.4-12-12v-68.6c0-6.6,5.4-12,12-12h46.5c6.6,0,12,5.4,12,12v68.6
		C335.7,258.3,330.3,263.7,323.7,263.7z"/>
	<path class="st2" d="M31.8,252.2h26c6.6,0,12-5.4,12-12v-26c0-6.6-5.4-12-12-12h-26c-6.6,0-12,5.4-12,12v26
		C19.8,246.8,25.2,252.2,31.8,252.2z"/>
	<path class="st2" d="M454.2,252.2h26c6.6,0,12-5.4,12-12v-26c0-6.6-5.4-12-12-12h-26c-6.6,0-12,5.4-12,12v26
		C442.2,246.8,447.6,252.2,454.2,252.2z"/>
	<path class="st0" d="M362.7,321.9c0,0-31.1,78.7-195,58.2"/>
	<circle class="st1" cx="372.6" cy="300.4" r="7.6"/>
</g>
</svg>
